/vscmnt/brussel_pixiu_data/_data_brussel/112/vsc11236/PredSimResults/SUBJ07opt3D/weighted-trackIG/worker_01.mot
version=1
nRows=9
nColumns=50
inDegrees=yes
endheader
                time	         pelvis_tilt	         pelvis_list	     pelvis_rotation	           pelvis_tx	           pelvis_ty	           pelvis_tz	       hip_flexion_r	     hip_adduction_r	      hip_rotation_r	        knee_angle_r	       ankle_angle_r	         mtp_angle_r	       hip_flexion_l	     hip_adduction_l	      hip_rotation_l	        knee_angle_l	       ankle_angle_l	         mtp_angle_l	    lumbar_extension	      lumbar_bending	     lumbar_rotation	 ercspn_r/activation	 intobl_r/activation	 extobl_r/activation	    abd_r/activation	    add_r/activation	hamstrings_r/activation	bifemsh_r/activation	glut_max_r/activation	iliopsoas_r/activation	rect_fem_r/activation	  vasti_r/activation	gastroc_r/activation	 soleus_r/activation	tib_ant_r/activation	 ercspn_l/activation	 intobl_l/activation	 extobl_l/activation	    abd_l/activation	    add_l/activation	hamstrings_l/activation	bifemsh_l/activation	glut_max_l/activation	iliopsoas_l/activation	rect_fem_l/activation	  vasti_l/activation	gastroc_l/activation	 soleus_l/activation	tib_ant_l/activation	
          0.53973761	         -4.15478910	          0.31328570	         -8.67119890	          0.68546677	          0.84746698	          0.01266892	        -15.11605784	         -0.31468040	          4.31017127	         -8.74787712	          7.57876175	         29.01628046	         30.56270556	         -2.34662412	         -5.10899265	         -7.44410565	          2.62324431	          0.27765476	        -11.47954821	          1.25051727	          1.64436785	          0.11718643	          0.00999999	          0.00999999	          0.03183818	          0.03798470	          0.01850921	          0.15566543	          0.01938199	          0.30897800	          0.01179912	          0.01179912	          0.15091723	          0.30502525	          0.01741603	          0.12190374	          0.13199034	          0.01000000	          0.01209217	          0.16178274	          0.08555459	          0.11166211	          0.09654019	          0.03991402	          0.01000003	          0.00999999	          0.01000000	          0.00999999	          0.41582067	
          0.55053236	         -4.15081148	          0.28440478	         -8.71804197	          0.70161449	          0.84584658	          0.01231843	        -15.58255477	         -0.41570452	          3.99318695	         -9.84008261	          6.60381792	         30.58249240	         30.42571324	         -2.14062989	         -4.75804546	         -9.12770471	          2.25739650	          0.25656397	        -11.35178175	          0.87469304	          1.83056545	          0.13651382	          0.00999999	          0.01000000	          0.02698351	          0.05841530	          0.01568701	          0.13192964	          0.01642664	          0.26186519	          0.01000000	          0.00999999	          0.12790543	          0.28519052	          0.01476045	          0.10331592	          0.12716564	          0.00999999	          0.01024836	          0.14060008	          0.07710134	          0.11999344	          0.15028787	          0.03382795	          0.00999999	          0.00999999	          0.01392193	          0.01179911	          0.46009283	
          0.56132712	         -4.14131665	          0.24611365	         -8.71262180	          0.71788028	          0.84443799	          0.01189321	        -15.86097317	         -0.48666644	          3.62637754	        -11.29037600	          5.53401248	         32.08711907	         30.18119093	         -1.98180460	         -4.40972349	        -10.65866676	          1.81889417	          0.24897336	        -11.22606578	          0.50631297	          2.00590688	          0.15649222	          0.00999999	          0.00999999	          0.02286907	          0.04950818	          0.01329521	          0.11181307	          0.01392191	          0.22193613	          0.01000001	          0.00999999	          0.10840247	          0.26273023	          0.01250978	          0.13537851	          0.10777548	          0.00999999	          0.09550343	          0.15757119	          0.06881147	          0.10828119	          0.15123562	          0.02866988	          0.00999999	          0.00999999	          0.01179912	          0.00999999	          0.53860604	
          0.57212187	         -4.12770873	          0.18716403	         -8.65789737	          0.73408239	          0.84339406	          0.01137533	        -15.88915621	         -0.51761750	          3.22307251	        -13.17365892	          4.33578053	         33.46405508	         29.91527874	         -1.84022928	         -4.12686883	        -12.13595487	          1.35357476	          0.22773873	        -11.12126360	          0.15932376	          2.16918285	          0.19416390	          0.00999999	          0.00999999	          0.01938201	          0.05339464	          0.01357060	          0.09476387	          0.01179910	          0.18809542	          0.01000000	          0.00999999	          0.09187331	          0.22900787	          0.01060229	          0.15147950	          0.09134192	          0.00999999	          0.14900829	          0.17767565	          0.05887891	          0.09177052	          0.18236995	          0.02429831	          0.00999999	          0.00999999	          0.01000000	          0.00999999	          0.56596810	
          0.58291662	         -4.11014455	          0.11559561	         -8.55896602	          0.75007089	          0.84285948	          0.01077701	        -15.60673198	         -0.51777076	          2.79062823	        -15.56747172	          3.01912987	         34.54810174	         29.70146645	         -1.70815634	         -3.89487959	        -13.73370198	          1.16100405	          0.20431084	        -11.04637289	         -0.17490554	          2.31768428	          0.23727895	          0.00999999	          0.00999999	          0.01642665	          0.07194173	          0.01473999	          0.08031432	          0.00999999	          0.15941471	          0.01000000	          0.00999999	          0.07786451	          0.19408886	          0.00999999	          0.16007943	          0.07741415	          0.00999999	          0.19221608	          0.20168698	          0.05044066	          0.07777740	          0.20888107	          0.02059332	          0.00999999	          0.02439527	          0.00999999	          0.00999999	          0.55804004	
          0.59371137	         -4.08973227	          0.03589151	         -8.41704471	          0.76572926	          0.84297198	          0.01011168	        -14.95568509	         -0.49272965	          2.32744982	        -18.54438386	          1.59539684	         35.11028534	         29.54598967	         -1.58354611	         -3.71310425	        -15.45048927	          1.30590867	          0.18220232	        -11.00573385	         -0.49889003	          2.44848274	          0.26380103	          0.00999999	          0.00999999	          0.01392192	          0.10449795	          0.01573154	          0.06806804	          0.00999999	          0.13510723	          0.01000000	          0.00999999	          0.06599176	          0.16449427	          0.00999999	          0.17121283	          0.06561007	          0.00999999	          0.21250481	          0.22533897	          0.04619095	          0.06591793	          0.22074223	          0.01745326	          0.00999999	          0.05017305	          0.00999999	          0.00999999	          0.52250760	
          0.60450612	         -4.06761787	         -0.05211728	         -8.23323818	          0.78104948	          0.84376622	          0.00940028	        -13.91111757	         -0.44733337	          1.84201072	        -22.11674734	          0.00535344	         35.01173503	         29.37551485	         -1.46135345	         -3.56507905	        -17.14281793	          1.76670623	          0.17372280	        -10.99056839	         -0.81056234	          2.55899379	          0.27803143	          0.00999999	          0.00999999	          0.01179911	          0.13148365	          0.01584814	          0.05768909	          0.00999999	          0.11450614	          0.01000000	          0.00999999	          0.05592937	          0.13941226	          0.00999999	          0.16525061	          0.05560588	          0.00999999	          0.21776071	          0.23672101	          0.04384076	          0.05586680	          0.22025459	          0.01479199	          0.00999999	          0.07668558	          0.00999999	          0.00999999	          0.44459899	
          0.61530088	         -4.04577670	         -0.14635480	         -8.00892237	          0.79605249	          0.84519445	          0.00865307	        -12.48061983	         -0.39071863	          1.36310893	        -26.20395139	         -1.91178782	         34.26404588	         29.10220233	         -1.33082352	         -3.41697013	        -18.63793055	          2.48082529	          0.21247996	        -10.99113391	         -1.10849951	          2.64839600	          0.28340756	          0.00999999	          0.00999999	          0.00999999	          0.14842802	          0.01343168	          0.05065984	          0.00999999	          0.09704630	          0.00999999	          0.00999999	          0.04740128	          0.11815474	          0.00999999	          0.14005327	          0.04712712	          0.00999999	          0.21412376	          0.23502872	          0.04786459	          0.04734826	          0.19950806	          0.01253652	          0.01000000	          0.11193010	          0.01000000	          0.00999999	          0.37680674	
          0.62609563	         -4.02697617	         -0.24381017	         -7.74479876	          0.81073947	          0.84716993	          0.00786783	        -10.69723736	         -0.32783776	          0.93256900	        -30.66744121	         -4.25362566	         32.80717927	         28.65756166	         -1.18004612	         -3.23044707	        -19.78195457	          3.29005982	          0.31818236	        -11.00435315	         -1.39040077	          2.71755840	          0.27469223	          0.00999999	          0.00999999	          0.00999999	          0.15294079	          0.01138377	          0.04293526	          0.00999999	          0.08224872	          0.00999999	          0.00999999	          0.04017356	          0.10013856	          0.02458435	          0.11869801	          0.03994120	          0.00999999	          0.21315836	          0.21992214	          0.05804468	          0.04012862	          0.16908716	          0.01062495	          0.00999999	          0.13404323	          0.00999999	          0.00999999	          0.31935142	
